<svg viewBox="0 0 105 36" id="logo-vivo-vivinho-theme-colorpicker" xmlns="http://www.w3.org/2000/svg">
    <defs>
        <polygon points="0 0.00618861907 21.7596735 0.00618861907 21.7596735 18.7135997 0 18.7135997"></polygon>
    </defs>
    <g stroke="none" stroke-width="1" fill="none" fill-rule="evenodd">
        <g transform="translate(0.000000, 2.000000)">
            <g transform="translate(0.000000, 11.346190)">

                <g></g>
                <path d="M9.96828135,18.7135997 L11.7909823,18.7135997 C12.0987797,18.7135997 13.2731367,18.5533424 13.9213682,17.3738087 L21.4665129,4.00369614 C22.2400016,2.58692765 21.3277508,1.38511093 20.5223006,1.0871045 L18.5152588,0.18768328 C17.4347605,-0.294551447 16.1377347,0.215705788 15.6508859,1.34482154 L10.9126061,10.8607701 L10.8411431,10.8607701 L6.10950322,1.34482154 C5.62242926,0.215705788 4.32439068,-0.294551447 3.24558039,0.18768328 L1.23887621,1.0871045 C0.431737942,1.38511093 -0.480175241,2.58692765 0.292975884,4.00369614 L7.83969614,17.3738087 C8.48646463,18.5533424 9.66172186,18.7135997 9.96828135,18.7135997" fill="#FFFFFF"></path>
            </g>
            <path d="M43.1184019,30.0597894 L44.9411029,30.0597894 C45.249463,30.0597894 46.4241576,29.8995322 47.070926,28.7199984 L54.6169711,15.3498859 C55.3895595,13.9331174 54.4779839,12.7313006 53.6709582,12.4332942 L51.6644791,11.533873 C50.5844309,11.0516383 49.2881929,11.5618955 48.8010064,12.6910113 L44.0630643,22.2069598 L43.9922765,22.2069598 L39.2582733,12.6910113 C38.7701865,11.5618955 37.4741736,11.0516383 36.3948006,11.533873 L34.3889968,12.4332942 C33.5816334,12.7313006 32.6687074,13.9331174 33.4434341,15.3498859 L40.9882412,28.7199984 C41.6362476,29.8995322 42.8103794,30.0597894 43.1184019,30.0597894" fill="#FFFFFF"></path>
            <path d="M65.2595932,24.5490563 C63.2070852,24.5490563 61.5429534,22.8851495 61.5429534,20.8309534 C61.5429534,18.779008 63.2070852,17.1153264 65.2595932,17.1153264 C67.3110884,17.1153264 68.9771334,18.779008 68.9771334,20.8309534 C68.9771334,22.8851495 67.3110884,24.5490563 65.2595932,24.5490563 M65.2595932,11.4157283 C60.0602363,11.4157283 55.8438055,15.6329469 55.8438055,20.8309534 C55.8438055,26.0325611 60.0602363,30.2494421 65.2595932,30.2494421 C70.4624389,30.2494421 74.6770691,26.0325611 74.6770691,20.8309534 C74.6770691,15.6329469 70.4624389,11.4157283 65.2595932,11.4157283" fill="#FFFFFF"></path>
            <path d="M31.140074,6.05603537 C31.140074,8.09503859 29.4875338,9.74555305 27.4490932,9.74555305 C25.4107653,9.74555305 23.7587878,8.09503859 23.7587878,6.05603537 C23.7587878,4.0177074 25.4107653,2.36685531 27.4490932,2.36685531 C29.4875338,2.36685531 31.140074,4.0177074 31.140074,6.05603537" fill="#FFFFFF"></path>
            <path d="M24.238254,13.8868633 C24.238254,12.6290016 25.2558424,11.6111881 26.5135916,11.6111881 L28.4175466,11.6111881 C29.6750707,11.6111881 30.6946849,12.6290016 30.6946849,13.8868633 L30.6946849,27.7837765 C30.6946849,29.0414132 29.6750707,30.0595643 28.4175466,30.0595643 L26.5135916,30.0595643 C25.2558424,30.0595643 24.238254,29.0414132 24.238254,27.7837765 L24.238254,13.8868633 Z" fill="#FFFFFF"></path>
            <path d="M99.1448039,6.04065113 C99.1448039,7.20375402 98.7326817,9.01846463 97.4518617,10.2997347 C97.0012508,10.7498955 96.6103987,11.0201045 96.2980997,11.2217765 C95.6960096,11.6115032 95.2605916,11.8826125 95.5033408,12.5329823 C95.7418135,13.1723232 96.4858167,12.9744775 97.1889678,12.8152331 C97.416074,12.7611013 101.833502,11.7040113 101.888421,11.7015354 C103.075608,11.4771302 104.22183,12.2276608 104.500141,13.3886254 C104.501267,13.3934646 104.854418,14.8690916 104.857569,14.8821463 C105.137344,16.0431109 104.457489,17.2329984 103.298662,17.5729823 C103.249257,17.5952653 98.4218457,18.7556672 98.4137428,18.7581431 C97.4971029,18.991664 96.9599486,19.4461013 96.9599486,20.3306672 C96.9599486,20.7257958 97.1889678,21.1546865 97.4709936,21.5112138 C97.4709936,21.5112138 102.715704,28.0117605 102.743051,28.0617283 C103.456669,29.0355386 103.274241,30.3935611 102.346685,31.1457797 C102.343646,31.1490434 101.165013,32.1042846 101.153646,32.1129502 C100.227778,32.8657315 98.8616527,32.7661334 98.0549646,31.8675 C98.0136624,31.8321624 94.7566367,27.8283199 94.4109132,27.4037058 C94.064627,26.9797669 93.6303344,26.3336736 93.0267814,26.3336736 C92.4242412,26.3336736 91.9899486,26.9797669 91.6433248,27.4037058 C91.298164,27.8283199 88.040463,31.8321624 87.9996109,31.8675 C87.1920225,32.7661334 85.8263473,32.8657315 84.8999164,32.1129502 C84.8895627,32.1042846 83.7104791,31.1490434 83.7074405,31.1457797 C82.7798842,30.3935611 82.5981318,29.0355386 83.3111865,28.0617283 C83.337746,28.0117605 88.5831318,21.5112138 88.5831318,21.5112138 C88.8640322,21.1546865 89.0937267,20.7257958 89.0937267,20.3306672 C89.0937267,19.4461013 88.5581479,18.991664 87.6403826,18.7581431 C87.6316045,18.7556672 82.8049807,17.5952653 82.7547878,17.5729823 C81.5970868,17.2329984 80.9167814,16.0431109 81.1959936,14.8821463 C81.1992572,14.8690916 81.5535338,13.3934646 81.5539839,13.3886254 C81.8322958,12.2276608 82.977955,11.4771302 84.1651415,11.7015354 C84.2207363,11.7040113 88.6377138,12.7611013 88.8640322,12.8152331 C89.5694341,12.9744775 90.3124244,13.1723232 90.5508971,12.5329823 C90.7930836,11.8826125 90.3581158,11.6115032 89.7560257,11.2217765 C89.4430514,11.0201045 89.0528746,10.7498955 88.6027138,10.2997347 C87.3214437,9.01846463 86.9088714,7.20375402 86.9088714,6.04065113 C86.9088714,2.70518489 89.6907524,5.62700965e-05 93.0267814,5.62700965e-05 C96.3626977,5.62700965e-05 99.1448039,2.70518489 99.1448039,6.04065113" fill="#FFFFFF"></path>
        </g>
    </g>
</svg>